<?xml version="1.0" encoding="UTF-8" standalone="no"?>
<!-- Created with Inkscape (http://www.inkscape.org/) -->

<svg
   width="150.81151mm"
   height="112.16185mm"
   viewBox="0 0 150.81151 112.16185"
   version="1.1"
   id="svg5"
   xml:space="preserve"
   xmlns="http://www.w3.org/2000/svg"
   xmlns:svg="http://www.w3.org/2000/svg"><defs
     id="defs2"><marker
       style="overflow:visible"
       id="marker4388"
       refX="0"
       refY="0"
       orient="auto"
       markerWidth="1"
       markerHeight="8"
       viewBox="0 0 1 8"
       preserveAspectRatio="xMidYMid"><path
         style="fill:none;stroke:context-stroke;stroke-width:1"
         d="M 0,4 V -4"
         id="path4386" /></marker><marker
       style="overflow:visible"
       id="Stop"
       refX="0"
       refY="0"
       orient="auto"
       markerWidth="1"
       markerHeight="8"
       viewBox="0 0 1 8"
       preserveAspectRatio="xMidYMid"><path
         style="fill:none;stroke:context-stroke;stroke-width:1"
         d="M 0,4 V -4"
         id="path171" /></marker><marker
       style="overflow:visible"
       id="TriangleStart"
       refX="2"
       refY="0"
       orient="auto-start-reverse"
       markerWidth="5.3244081"
       markerHeight="6.155385"
       viewBox="0 0 5.3244081 6.1553851"
       preserveAspectRatio="xMidYMid"><path
         transform="scale(0.5)"
         style="fill:context-stroke;fill-rule:evenodd;stroke:context-stroke;stroke-width:1pt"
         d="M 5.77,0 -2.88,5 V -5 Z"
         id="path135" /></marker><marker
       style="overflow:visible"
       id="TriangleStart-0"
       refX="2"
       refY="0"
       orient="auto-start-reverse"
       markerWidth="5.3244081"
       markerHeight="6.155385"
       viewBox="0 0 5.3244081 6.1553851"
       preserveAspectRatio="xMidYMid"><path
         transform="scale(0.5)"
         style="fill:context-stroke;fill-rule:evenodd;stroke:context-stroke;stroke-width:1pt"
         d="M 5.77,0 -2.88,5 V -5 Z"
         id="path135-8" /></marker></defs><g
     id="layer1"
     transform="translate(-27.108782,-33.070984)"><g
       id="use5492"
       style="fill:#333333;fill-opacity:1;stroke:none;stroke-opacity:1"
       transform="matrix(1.461777,0,0,1.461777,-37.393552,-51.796963)"><path
         style="color:#000000;fill:#333333;fill-opacity:1;stroke:none;stroke-width:0;stroke-opacity:1;-inkscape-stroke:none"
         d="m 56.738406,103.29594 q 0.0048,0 0.344658,-0.0239 0.339871,-0.0239 0.349445,-0.0287 0.05744,0 0.05744,0.0383 0,0.0335 -0.349445,1.44565 -0.349445,1.41214 -0.359019,1.44087 -0.0096,0.0287 -0.0048,0.0718 0,0.20105 0.134034,0.20105 0.04308,-0.005 0.09574,-0.0431 0.100526,-0.0957 0.196264,-0.45955 0.02872,-0.0957 0.04787,-0.10052 0.0096,-0.005 0.04787,-0.005 h 0.01915 0.01915 q 0.0718,0 0.0718,0.0383 0,0.0239 -0.01436,0.0766 -0.06223,0.23934 -0.143608,0.38774 -0.08138,0.14839 -0.134034,0.19147 -0.05266,0.0431 -0.134033,0.0766 -0.0383,0.01 -0.114886,0.01 -0.162756,0 -0.272855,-0.0718 -0.110099,-0.0718 -0.143607,-0.1484 l -0.02872,-0.0718 q -0.0048,-0.005 -0.01915,0.005 -0.0096,0.01 -0.01915,0.0191 -0.282429,0.26807 -0.574431,0.26807 -0.26328,0 -0.464331,-0.19148 -0.201051,-0.19147 -0.201051,-0.60794 0,-0.22977 0.09574,-0.46911 0.09574,-0.23935 0.229772,-0.41168 0.224985,-0.27285 0.44997,-0.37817 0.224986,-0.10531 0.406889,-0.10531 0.268067,0 0.402101,0.20105 0.02393,0.0287 0.02393,0.0192 0.0048,-0.0192 0.129247,-0.52177 0.12446,-0.50263 0.134034,-0.53135 0,-0.0622 -0.03351,-0.0766 -0.03351,-0.0144 -0.18669,-0.0239 h -0.100526 q -0.02872,-0.0287 -0.02872,-0.0383 0,-0.01 0.0096,-0.091 0.02393,-0.091 0.06223,-0.091 z m -0.06702,1.70893 q -0.110099,-0.37816 -0.359019,-0.37816 -0.167542,0 -0.320724,0.14839 -0.153181,0.1484 -0.239346,0.38774 -0.13882,0.37817 -0.196264,0.78506 0,0.0144 0,0.0526 0,0.0383 -0.0048,0.0575 0,0.21541 0.08616,0.29679 0.08617,0.0814 0.205838,0.0862 0.258493,0 0.531348,-0.34466 l 0.03829,-0.0526 z"
         id="path5999" /><path
         style="color:#000000;fill:#333333;fill-opacity:1;stroke:none;stroke-opacity:1;-inkscape-stroke:none"
         d="m 56.738406,103.29594 c 0.0032,0 0.118086,-0.008 0.344658,-0.0239 0.22658,-0.0159 0.343062,-0.0255 0.349445,-0.0287 0.03829,0 0.05744,0.0128 0.05744,0.0383 0,0.0223 -0.116482,0.50422 -0.349445,1.44565 -0.232963,0.94143 -0.352636,1.42172 -0.359019,1.44087 -0.0064,0.0191 -0.008,0.0431 -0.0048,0.0718 0,0.13403 0.04468,0.20105 0.134034,0.20105 0.02872,-0.003 0.06063,-0.0177 0.09574,-0.0431 0.06702,-0.0638 0.132439,-0.21698 0.196264,-0.45955 0.01915,-0.0638 0.0351,-0.0973 0.04787,-0.10052 0.0064,-0.003 0.02236,-0.005 0.04787,-0.005 h 0.01915 0.01915 c 0.04787,0 0.0718,0.0128 0.0718,0.0383 0,0.0159 -0.0048,0.0415 -0.01436,0.0766 -0.04149,0.15956 -0.08936,0.28881 -0.143608,0.38774 -0.05425,0.0989 -0.09893,0.16275 -0.134034,0.19147 -0.03511,0.0287 -0.07978,0.0543 -0.134033,0.0766 -0.02553,0.007 -0.06383,0.01 -0.114886,0.01 -0.108504,0 -0.199456,-0.0239 -0.272855,-0.0718 -0.0734,-0.0479 -0.121268,-0.0973 -0.143607,-0.1484 l -0.02872,-0.0718 c -0.0032,-0.003 -0.0096,-0.002 -0.01915,0.005 -0.0064,0.007 -0.01278,0.013 -0.01915,0.0191 -0.188286,0.17871 -0.379763,0.26807 -0.574431,0.26807 -0.17552,0 -0.330297,-0.0638 -0.464331,-0.19148 -0.134034,-0.12765 -0.201051,-0.33029 -0.201051,-0.60794 0,-0.15318 0.03191,-0.30955 0.09574,-0.46911 0.06383,-0.15957 0.140417,-0.29679 0.229772,-0.41168 0.14999,-0.1819 0.29998,-0.30796 0.44997,-0.37817 0.149991,-0.0702 0.28562,-0.10531 0.406889,-0.10531 0.178711,0 0.312745,0.067 0.402101,0.20105 0.01595,0.0191 0.02393,0.0255 0.02393,0.0192 0.0032,-0.0128 0.04628,-0.18672 0.129247,-0.52177 0.08297,-0.33509 0.127651,-0.5122 0.134034,-0.53135 0,-0.0415 -0.01117,-0.067 -0.03351,-0.0766 -0.02234,-0.01 -0.08457,-0.0176 -0.18669,-0.0239 h -0.100526 c -0.01915,-0.0191 -0.02872,-0.0319 -0.02872,-0.0383 0,-0.007 0.0032,-0.037 0.0096,-0.091 0.01595,-0.0607 0.0367,-0.091 0.06223,-0.091 z m -0.06702,1.70893 c -0.0734,-0.25211 -0.193072,-0.37816 -0.359019,-0.37816 -0.111695,0 -0.218603,0.0495 -0.320724,0.14839 -0.102121,0.0989 -0.181903,0.22818 -0.239346,0.38774 -0.09255,0.25211 -0.157968,0.5138 -0.196264,0.78506 v 0.0526 c 0,0.0255 -0.0016,0.0447 -0.0048,0.0575 0,0.14361 0.02872,0.24254 0.08616,0.29679 0.05745,0.0543 0.126059,0.083 0.205838,0.0862 0.172328,0 0.349445,-0.11489 0.531348,-0.34466 l 0.03829,-0.0526 z"
         id="path6001" /></g><rect
       style="fill:#ff6b6b;fill-opacity:0.2;stroke:#ff6b6b;stroke-width:0.240578;stroke-opacity:1"
       id="rect587"
       width="46.276459"
       height="52.836987"
       x="94.043007"
       y="31.644665"
       transform="matrix(0.99362609,0.11272619,0.26047119,0.96548162,0,0)" /><rect
       style="fill:#ff6b6b;fill-opacity:0.2;stroke:#ff6b6b;stroke-width:0.240578;stroke-opacity:1"
       id="rect587-7"
       width="46.276459"
       height="52.836987"
       x="103.6384"
       y="26.405788"
       transform="matrix(0.99362609,0.11272619,0.26047119,0.96548162,0,0)" /><rect
       style="fill:#ff6b6b;fill-opacity:0.2;stroke:#ff6b6b;stroke-width:0.240578;stroke-opacity:1"
       id="rect587-7-2"
       width="46.276459"
       height="52.836987"
       x="113.23381"
       y="21.166912"
       transform="matrix(0.99362609,0.11272619,0.26047119,0.96548162,0,0)" /><path
       style="fill:#ff6b6b;fill-opacity:1;stroke:#ff6b6b;stroke-width:0.563051;stroke-dasharray:none;stroke-opacity:1;marker-end:url(#TriangleStart)"
       d="m 131.55811,70.186072 -6.60395,3.455135"
       id="path1247" /><path
       style="fill:#808080;fill-opacity:0.2;stroke:#333333;stroke-width:0.322733;stroke-dasharray:none;stroke-dashoffset:0;stroke-opacity:1;marker-start:url(#TriangleStart)"
       d="M 49.503045,144.76401 64.146207,105.6396"
       id="path1502-7" /><path
       style="fill:#808080;fill-opacity:0.2;stroke:#333333;stroke-width:0.187343;stroke-dasharray:0.749374, 0.749374;stroke-dashoffset:0;stroke-opacity:1"
       d="M 64.146207,105.6396 60.493744,98.729958"
       id="path1561" /><path
       style="fill:#808080;fill-opacity:0.2;stroke:#333333;stroke-width:0.283619;stroke-dasharray:1.13447, 1.13447;stroke-dashoffset:0;stroke-opacity:1"
       d="M 49.503045,144.76401 32.698796,113.39951"
       id="path1561-3" /><path
       style="fill:none;fill-opacity:1;stroke:#333333;stroke-width:0.481474;stroke-dasharray:0.481474, 0.96295;stroke-dashoffset:0;stroke-opacity:1"
       d="M 27.220382,124.77602 124.18034,74.0473"
       id="path981" /><path
       style="fill:#808080;fill-opacity:0.2;stroke:#ff6b6b;stroke-width:0.563051;stroke-dasharray:none;stroke-opacity:1;marker-end:url(#TriangleStart-0)"
       d="m 64.197469,105.44656 -6.206109,3.24699"
       id="path1247-4" /><path
       style="fill:none;fill-opacity:1;stroke:#333333;stroke-width:0.265;stroke-dasharray:none;stroke-dashoffset:0;stroke-opacity:1;marker-start:url(#Stop);marker-end:url(#marker4388)"
       d="M 32.692151,113.40434 60.557831,98.763488"
       id="path4118" /><path
       id="rect5421"
       style="fill:#808080;fill-opacity:0.2;stroke:#333333;stroke-width:0.2;stroke-dasharray:none;stroke-opacity:1"
       d="m 36.62864,120.2301 1.525589,-0.81167 0.811668,1.52559 -1.52559,0.81166 z" /><path
       id="path3102"
       style="fill:none;stroke:#4d96ff;stroke-width:0.5;stroke-dasharray:none;stroke-opacity:1"
       d="m 49.503045,132.08768 -7.94636,-7.94635 m 7.94636,20.62268 v -12.67633 l 7.94637,-7.94635" /><path
       id="path3102-4"
       style="fill:none;stroke:#4d96ff;stroke-width:0.5;stroke-dasharray:none;stroke-opacity:1"
       d="m 64.146207,92.963266 -7.94636,-7.946355 m 7.94636,20.622689 V 92.963266 l 7.94637,-7.946355" /><g
       data-mml-node="mover"
       id="g4951"
       transform="matrix(0.00701736,0,0,-0.00701736,125.679,68.687218)"
       style="fill:#333333;fill-opacity:1;stroke:#ffffff;stroke-width:0"><g
         data-mml-node="mi"
         id="g4945"
         style="fill:#333333;fill-opacity:1"><g
           id="use4943"
           style="fill:#333333;fill-opacity:1"><path
             style="color:#000000;fill:#333333;fill-opacity:1;stroke:none;-inkscape-stroke:none"
             d="m 21,287 q 0,8 9,31 9,23 25,52 16,29 44,50 28,21 59,22 46,0 69,-25 23,-25 23,-59 0,-18 -34,-112 -34,-94 -34,-141 0,-43 14,-60 14,-17 42,-18 28,-1 53,17 25,18 37,34 l 11,17 q 2,4 38,152 30,120 36,140 6,20 14,29 17,15 36,15 17,0 25,-10 8,-10 8,-19 L 420,84 q -1,-5 -1,-16 0,-25 7,-33 7,-8 21,-9 22,3 35,31 13,28 30,88 2,8 20,8 19,0 19,-9 -1,-5 -2,-14 -1,-9 -9,-32 -8,-23 -17,-43 -9,-20 -25,-38 -16,-18 -36,-25 -8,-2 -24,-2 -66,0 -91,56 -2,-1 -11,-10 -9,-9 -18,-15 -9,-6 -22,-15 -13,-9 -29,-12 -16,-3 -34,-5 -44,0 -78,18 -52,31 -52,106 0,57 35,149 35,92 35,117 0,1 0,2 0,9 0,12 0,3 -4,7 -4,4 -11,4 h -4 Q 131,404 112,385 93,366 82,344 71,322 65,302 59,282 57,280 55,278 41,278 H 27 q -6,6 -6,9 z"
             id="path5056" /><path
             style="color:#000000;fill:#333333;fill-opacity:1;stroke:none;-inkscape-stroke:none"
             d="m 21,287 c 0,5.33333 3.000006,15.66668 9,31 5.999994,15.33332 14.333344,32.66669 25,52 10.666656,19.33331 25.333352,36.00001 44,50 18.66665,13.99999 38.33335,21.33333 59,22 30.66664,0 53.66668,-8.33335 69,-25 15.33332,-16.66665 23,-36.33336 23,-59 0,-11.99999 -11.33336,-49.3334 -34,-112 -22.66664,-62.6666 -34,-109.6667 -34,-141 0,-28.666638 4.66668,-48.666678 14,-60 9.33332,-11.333322 23.33335,-17.333334 42,-18 18.66665,-0.666666 36.33335,5.000012 53,17 16.66665,11.999988 29.00001,23.333344 37,34 l 11,17 c 1.33333,2.666664 14.00002,53.33343 38,152 19.99998,79.99992 32,126.66668 36,140 4,13.33332 8.66667,23.00001 14,29 11.33332,9.99999 23.33335,15 36,15 11.33332,0 19.66667,-3.33334 25,-10 5.33333,-6.66666 8,-13.00001 8,-19 L 420,84 c -0.66667,-3.33333 -1,-8.666674 -1,-16 0,-16.66665 2.33334,-27.666672 7,-33 4.66666,-5.333328 11.66668,-8.333334 21,-9 14.66665,1.999998 26.33334,12.333352 35,31 8.66666,18.666648 18.66668,48.00004 30,88 1.33333,5.33333 8.00001,8 20,8 12.66665,0 19,-3.00001 19,-9 -0.66667,-3.33333 -1.33333,-8.00001 -2,-14 -0.66667,-5.99999 -3.66667,-16.66668 -9,-32 C 534.66667,82.666682 528.99999,68.33332 523,55 517.00001,41.66668 508.66666,28.999988 498,17 487.33334,5.000012 475.33332,-3.333338 462,-8 c -5.33333,-1.333332 -13.33334,-2 -24,-2 -43.99996,0 -74.33335,18.666704 -91,56 -1.33333,-0.666666 -5.00001,-4.000006 -11,-10 C 330.00001,30.000006 323.99999,24.999996 318,21 312.00001,17.000004 304.66666,11.999994 296,6 287.33334,6e-6 277.66666,-4.000002 267,-6 c -10.66666,-1.999998 -22.00001,-3.666668 -34,-5 -29.3333,0 -55.33336,6.000012 -78,18 -34.66663,20.666646 -52,56.00005 -52,106 0,37.99996 11.66669,87.66673 35,149 23.33331,61.33327 35,100.33335 35,117 v 2 12 c 0,2 -1.33334,4.33334 -4,7 -2.66666,2.66666 -6.33334,4 -11,4 h -4 c -15.33332,0 -29.33335,-6.33335 -42,-19 C 99.333346,372.33335 89.333326,358.66665 82,344 74.666674,329.33335 68.999996,315.33332 65,302 61.000004,288.66668 58.333332,281.33333 57,280 55.666668,278.66667 50.333324,278 41,278 H 27 c -3.999996,4 -6,7 -6,9 z"
             id="path5058" /></g></g><g
         data-mml-node="mo"
         transform="translate(63.8,-14)"
         id="g4949"
         style="fill:#333333;fill-opacity:1"><g
           id="use4947"
           style="fill:#333333;fill-opacity:1"><path
             style="color:#000000;fill:#333333;fill-opacity:1;stroke:none;-inkscape-stroke:none"
             d="m 377,694 q 0,8 5,14 5,6 15,6 7,0 12,-5 5,-4 10,-19 10,-37 41,-57 11,-7 11,-18 0,-9 -3,-12 -3,-3 -14,-9 -43,-22 -75,-63 -2,-2 -5,-6 -3,-4 -5,-6 -2,-2 -5,-2 -3,0 -7,-1 -7,0 -13,5 -6,5 -7,15 0,19 47,59 H 213 l -171,1 q -13,9 -13,19 0,7 13,20 h 359 q -24,38 -24,59 z"
             id="path5062" /><path
             style="color:#000000;fill:#333333;fill-opacity:1;stroke:none;-inkscape-stroke:none"
             d="m 377,694 c 0,5.33333 1.66667,10 5,14 3.33333,4 8.33334,6 15,6 4.66666,0 8.66667,-1.66667 12,-5 3.33333,-2.66666 6.66667,-9.00001 10,-19 6.66666,-24.66664 20.33335,-43.66668 41,-57 7.33333,-4.66666 11,-10.66667 11,-18 0,-5.99999 -1,-10 -3,-12 -2,-2 -6.66667,-5 -14,-9 -28.66664,-14.66665 -53.66669,-35.66669 -75,-63 -1.33333,-1.33333 -3,-3.33334 -5,-6 -2,-2.66666 -3.66667,-4.66667 -5,-6 -1.33333,-1.33333 -3,-2 -5,-2 -2,0 -4.33334,-0.33333 -7,-1 -4.66666,0 -9,1.66667 -13,5 -4,3.33333 -6.33333,8.33334 -7,15 0,12.66665 15.6667,32.33336 47,59 H 213 l -171,1 c -8.666658,5.99999 -13,12.33334 -13,19 0,4.66666 4.333342,11.33334 13,20 h 359 c -15.99998,25.33331 -24,45.00001 -24,59 z"
             id="path5064" /></g></g></g><g
       data-mml-node="mover"
       id="g6494"
       transform="matrix(0.00689119,0,0,-0.00689119,59.355081,128.57803)"
       style="fill:#333333;fill-opacity:1;stroke:#000000;stroke-width:0"><g
         data-mml-node="mi"
         id="g6488"
         style="fill:#333333;fill-opacity:1"><g
           id="use6486"
           style="fill:#333333;fill-opacity:1"><path
             style="color:#000000;fill:#333333;fill-opacity:1;stroke:none;-inkscape-stroke:none"
             d="m 23,287 q 1,3 2,8 1,5 5,22 4,17 10,31 6,14 15,33 9,19 20,30 11,11 26,22 15,11 33,9 75,0 96,-64 l 10,9 q 62,55 118,55 65,0 102,-47 37,-47 37,-114 0,-108 -76,-199 -76,-91 -172,-92 -22,0 -39,6 -11,5 -23,15 -12,10 -19,17 l -7,8 q -1,-1 -22,-87 -21,-86 -21,-87 0,-6 8,-7 8,-1 37,-3 h 25 q 6,-7 6,-9 0,-2 -3,-18 -3,-12 -6,-15 -3,-3 -13,-4 -2,0 -11,0 -9,0 -34,1 -25,1 -62,1 -70,0 -89,-2 h -8 q -7,7 -7,11 2,27 13,35 h 20 q 34,1 39,12 3,6 61,239 58,233 61,247 1,5 1,14 0,41 -25,41 -22,0 -37,-28 Q 79,349 71,316 63,283 59,280 57,278 43,278 H 29 q -6,6 -6,9 z M 178,102 q 22,-76 74,-76 30,0 58,23 28,23 46,58 18,34 36,108 18,74 19,110 v 6 q 0,74 -61,74 -11,0 -22,-3 -11,-3 -22,-9 -11,-6 -20,-13 -9,-7 -17,-15 -8,-8 -15,-15 -7,-7 -11,-14 -4,-7 -8,-10 l -3,-4 q 0,-1 -3,-14 -3,-13 -11,-44 -8,-31 -14,-52 -26,-106 -26,-110 z"
             id="path7020" /><path
             style="color:#000000;fill:#333333;fill-opacity:1;stroke:none;-inkscape-stroke:none"
             d="m 118,-138 c 0,0.0208 0.006,0.0703 0.0195,0.14648 0.0137,0.0762 0.0352,0.17904 0.0625,0.31055 -0.0273,-0.13151 -0.0469,-0.23633 -0.0606,-0.3125 C 118.00781,-137.93164 118,-137.97917 118,-138 Z"
             id="path7022" /></g></g><g
         data-mml-node="mo"
         transform="translate(84.8,-14)"
         id="g6492"
         style="fill:#333333;fill-opacity:1"><g
           id="use6490"
           style="fill:#333333;fill-opacity:1"><path
             style="color:#000000;fill:#333333;fill-opacity:1;stroke:none;-inkscape-stroke:none"
             d="m 377,694 q 0,8 5,14 5,6 15,6 7,0 12,-5 5,-4 10,-19 10,-37 41,-57 11,-7 11,-18 0,-9 -3,-12 -3,-3 -14,-9 -43,-22 -75,-63 -2,-2 -5,-6 -3,-4 -5,-6 -2,-2 -5,-2 -3,0 -7,-1 -7,0 -13,5 -6,5 -7,15 0,19 47,59 H 213 l -171,1 q -13,9 -13,19 0,7 13,20 h 359 q -24,38 -24,59 z"
             id="path7026" /><path
             style="color:#000000;fill:#333333;fill-opacity:1;stroke:none;-inkscape-stroke:none"
             d="m 377,694 c 0,5.33333 1.66667,10 5,14 3.33333,4 8.33334,6 15,6 4.66666,0 8.66667,-1.66667 12,-5 3.33333,-2.66666 6.66667,-9.00001 10,-19 6.66666,-24.66664 20.33335,-43.66668 41,-57 7.33333,-4.66666 11,-10.66667 11,-18 0,-5.99999 -1,-10 -3,-12 -2,-2 -6.66667,-5 -14,-9 -28.66664,-14.66665 -53.66669,-35.66669 -75,-63 -1.33333,-1.33333 -3,-3.33334 -5,-6 -2,-2.66666 -3.66667,-4.66667 -5,-6 -1.33333,-1.33333 -3,-2 -5,-2 -2,0 -4.33334,-0.33333 -7,-1 -4.66666,0 -9,1.66667 -13,5 -4,3.33333 -6.33333,8.33334 -7,15 0,12.66665 15.6667,32.33336 47,59 H 213 l -171,1 c -8.666658,5.99999 -13,12.33334 -13,19 0,4.66666 4.333342,11.33334 13,20 h 359 c -15.99998,25.33331 -24,45.00001 -24,59 z"
             id="path7028" /></g></g></g></g></svg>
